<svg width="39" height="39" viewBox="0 0 39 39" fill="none" xmlns="http://www.w3.org/2000/svg">
<path d="M35.053 0.94666C29.7196 0.119993 24.2797 0.119993 18.9464 0.94666C16.7597 1.29333 15.1597 3.15998 15.1597 5.34664V15.16H5.34634C3.15967 15.16 1.29302 16.76 0.946355 18.9467C0.119688 24.28 0.119688 29.7199 0.946355 35.0533C1.29302 37.2399 3.15967 38.84 5.34634 38.84H9.82632C10.573 38.84 11.1597 38.2533 11.1597 37.5066V32.92C11.1597 27.4533 15.613 23 21.0797 23H32.9197C33.9863 23 34.8397 22.1466 34.8397 21.08V12.4933C34.8397 11.7466 35.4263 11.16 36.173 11.16H37.5063C38.253 11.16 38.8397 10.5733 38.8397 9.82662V5.34664C38.8397 3.15998 37.2396 1.29333 35.053 0.94666ZM22.5463 9.87993C21.453 9.87993 20.413 8.83996 20.413 7.74663C20.413 6.62663 21.453 5.58663 22.5463 5.58663C23.0796 5.58663 23.6664 5.82666 24.0397 6.2C24.4397 6.57333 24.7064 7.18663 24.7064 7.74663C24.7064 8.83996 23.6663 9.87993 22.5463 9.87993Z" fill="#647B64"/>
</svg>
