<svg width="39" height="39" viewBox="0 0 39 39" fill="none" xmlns="http://www.w3.org/2000/svg">
<path d="M38.0528 3.94665C37.7061 1.75998 35.8395 0.159943 33.6528 0.159943H25.1728C24.4262 0.159943 23.8395 0.746609 23.8395 1.49328V6.07995C23.8395 9.33328 21.1995 11.9999 17.9195 11.9999H6.07949C2.79949 11.9999 0.159485 14.64 0.159485 17.92V33.6533C0.159485 35.8399 1.75952 37.7066 3.94619 38.0533C9.27952 38.8799 14.7195 38.8799 20.0528 38.0533C22.2395 37.7066 23.8395 35.8399 23.8395 33.6533V23.84H33.6528C35.8395 23.84 37.7061 22.2399 38.0528 20.0533C38.8795 14.7199 38.8795 9.27998 38.0528 3.94665ZM16.4529 33.4133C15.3595 33.4133 14.2928 32.3733 14.2928 31.2533C14.2928 30.1333 15.3329 29.0933 16.4529 29.0933C16.9595 29.0933 17.5729 29.3333 17.9462 29.68C18.3462 30.0533 18.6129 30.6933 18.6129 31.2266C18.5862 32.3733 17.5462 33.4133 16.4529 33.4133Z" fill="#647B64"/>
</svg>
